<svg width="57" height="43" viewBox="0 0 57 43" fill="none" xmlns="http://www.w3.org/2000/svg">
<path d="M37.7247 5.4248L28.4512 10.781L37.7247 16.1444V5.4248Z" fill="url(#paint0_linear_108_7707)"/>
<path d="M37.7246 16.1447L46.9981 21.5009V10.7812L37.7246 16.1447Z" fill="url(#paint1_linear_108_7707)"/>
<path d="M46.9981 10.781L37.7246 5.4248V16.1444L46.9981 10.781Z" fill="url(#paint2_linear_108_7707)"/>
<path d="M56.2668 5.42456L46.9981 0.0683594L37.7246 5.42456L46.9981 10.7808L56.2668 5.42456Z" fill="url(#paint3_linear_108_7707)"/>
<path d="M56.2687 5.4248L47 10.781V21.5006L56.2687 16.1444V5.4248Z" fill="url(#paint4_linear_108_7707)"/>
<path d="M9.90932 21.5L0.640625 26.861V37.5758L9.90932 32.2196V21.5Z" fill="url(#paint5_linear_108_7707)"/>
<path d="M0.640625 37.5759L9.90932 42.9369L19.1828 37.5759L9.90932 32.2197L0.640625 37.5759Z" fill="url(#paint6_linear_108_7707)"/>
<path d="M19.1837 26.861L9.91016 21.5V32.2196L19.1837 26.861Z" fill="url(#paint7_linear_108_7707)"/>
<path d="M9.91016 32.2199L19.1837 37.5761V26.8613L9.91016 32.2199Z" fill="url(#paint8_linear_108_7707)"/>
<path d="M19.1836 37.5761L28.4523 32.2199L19.1836 26.8613V37.5761Z" fill="url(#paint9_linear_108_7707)"/>
<path d="M37.7246 26.8618L46.9981 21.5007L37.7246 16.1445V26.8618Z" fill="url(#paint10_linear_108_7707)"/>
<path d="M28.4512 32.2199L37.7247 37.5761V26.8613L28.4512 32.2199Z" fill="url(#paint11_linear_108_7707)"/>
<path d="M56.2687 37.5758V26.861L47 21.5V32.2196L56.2687 37.5758Z" fill="url(#paint12_linear_108_7707)"/>
<path d="M37.7246 37.5759L46.9981 42.9369L56.2668 37.5759L46.9981 32.2197L37.7246 37.5759Z" fill="url(#paint13_linear_108_7707)"/>
<path d="M37.7246 26.8613V37.5761L46.9981 32.2199L37.7246 26.8613Z" fill="url(#paint14_linear_108_7707)"/>
<path d="M46.9981 32.2196V21.5L37.7246 26.861L46.9981 32.2196Z" fill="url(#paint15_linear_108_7707)"/>
<path d="M19.1836 26.861L28.4523 32.2196V21.5L19.1836 26.861Z" fill="url(#paint16_linear_108_7707)"/>
<path d="M37.7247 16.1447L28.4512 10.7812V21.5009L37.7247 16.1447Z" fill="url(#paint17_linear_108_7707)"/>
<path d="M28.4512 21.5V32.2196L37.7247 26.861L28.4512 21.5Z" fill="url(#paint18_linear_108_7707)"/>
<path d="M37.7247 26.8618V16.1445L28.4512 21.5007L37.7247 26.8618Z" fill="url(#paint19_linear_108_7707)"/>
<path d="M19.1836 26.8618L28.4523 21.5007L19.1836 16.1445V26.8618Z" fill="url(#paint20_linear_108_7707)"/>
<path d="M28.4523 21.5009V10.7812L19.1836 16.1447L28.4523 21.5009Z" fill="url(#paint21_linear_108_7707)"/>
<path d="M28.4523 10.781L19.1836 5.4248V16.1444L28.4523 10.781Z" fill="url(#paint22_linear_108_7707)"/>
<path d="M19.1837 16.1445L9.91016 21.5007L19.1837 26.8618V16.1445Z" fill="url(#paint23_linear_108_7707)"/>
<path d="M19.1837 16.1444V5.4248L9.91016 10.781L19.1837 16.1444Z" fill="url(#paint24_linear_108_7707)"/>
<path d="M9.91016 10.7812V21.5009L19.1837 16.1447L9.91016 10.7812Z" fill="url(#paint25_linear_108_7707)"/>
<path d="M0.640625 5.4248V16.1444L9.90932 21.5006V10.781L0.640625 5.4248Z" fill="url(#paint26_linear_108_7707)"/>
<path d="M19.1828 5.42456L9.90932 0.0683594L0.640625 5.42456L9.90932 10.7808L19.1828 5.42456Z" fill="url(#paint27_linear_108_7707)"/>
<path d="M19.1836 26.8619V16.1447L28.4523 10.7812L37.7258 16.1447V26.8619L28.4523 32.2205L19.1836 26.8619Z" fill="url(#paint28_linear_108_7707)"/>
<g opacity="0.82">
<path d="M28.4523 10.7812L19.1836 16.1447L28.4523 21.5009L37.7258 16.1447L28.4523 10.7812Z" fill="url(#paint29_linear_108_7707)"/>
</g>
<g opacity="0.82">
<path d="M28.4531 21.5007V32.2204L37.7266 26.8618V16.1445L28.4531 21.5007Z" fill="url(#paint30_linear_108_7707)"/>
</g>
<g opacity="0.82">
<path d="M28.4523 32.2204L19.1836 26.8618V16.1445L28.4523 21.5007V32.2204Z" fill="url(#paint31_linear_108_7707)"/>
</g>
<path opacity="0.82" d="M9.91016 32.2204V21.5007L19.1837 16.1445V26.8618L9.91016 32.2204Z" fill="url(#paint32_linear_108_7707)"/>
<path opacity="0.82" d="M37.7266 26.8618L47.0001 21.5007L37.7266 16.1445V26.8618Z" fill="url(#paint33_linear_108_7707)"/>
<path opacity="0.82" d="M47.0001 32.2206V21.501L37.7266 26.862L47.0001 32.2206Z" fill="url(#paint34_linear_108_7707)"/>
<path opacity="0.82" d="M9.91016 32.2199L19.1837 37.5761V26.8613L9.91016 32.2199Z" fill="url(#paint35_linear_108_7707)"/>
<path opacity="0.82" d="M19.1836 37.5761L28.4523 32.2199L19.1836 26.8613V37.5761Z" fill="url(#paint36_linear_108_7707)"/>
<path opacity="0.82" d="M37.7266 5.4248L28.4531 10.781L37.7266 16.1444V5.4248Z" fill="url(#paint37_linear_108_7707)"/>
<path opacity="0.82" d="M28.4523 10.781L19.1836 5.4248V16.1444L28.4523 10.781Z" fill="url(#paint38_linear_108_7707)"/>
<path opacity="0.82" d="M19.1837 16.1444V5.4248L9.91016 10.781L19.1837 16.1444Z" fill="url(#paint39_linear_108_7707)"/>
<path opacity="0.82" d="M47.0001 10.781L37.7266 5.4248V16.1444L47.0001 10.781Z" fill="url(#paint40_linear_108_7707)"/>
<g opacity="0.82">
<path d="M37.7258 16.1447L28.4523 21.5009L19.1836 16.1447L28.4523 10.7812L37.7258 16.1447Z" fill="url(#paint41_linear_108_7707)"/>
</g>
<path opacity="0.82" d="M28.4531 10.781L37.7266 5.4248L47.0001 10.781L37.7266 16.1444L28.4531 10.781Z" fill="url(#paint42_linear_108_7707)"/>
<path opacity="0.82" d="M47.0001 10.7812V21.5009V32.2205L37.729 37.5767L28.4531 32.2205L37.7266 26.8619V16.1447L47.0001 10.7812Z" fill="url(#paint43_linear_108_7707)"/>
<path opacity="0.82" d="M47.0001 10.7812V21.5009V32.2205L37.729 37.5767L28.4531 32.2205L37.7266 26.8619V16.1447L47.0001 10.7812Z" fill="url(#paint44_linear_108_7707)"/>
<path opacity="0.82" d="M9.91016 21.5007V32.2204L19.1837 37.5766L28.4524 32.2204L19.1837 26.8618V16.1445L9.91016 21.5007Z" fill="url(#paint45_linear_108_7707)"/>
<g opacity="0.82">
<path d="M28.4531 21.5007L37.7266 26.8618L47.0001 21.5007L37.7266 16.1445L28.4531 21.5007Z" fill="url(#paint46_linear_108_7707)"/>
</g>
<g opacity="0.77">
<g opacity="0.69">
<path d="M28.4531 21.5007V32.2204L37.7266 26.8618V16.1445L28.4531 21.5007Z" fill="url(#paint47_linear_108_7707)"/>
</g>
<path d="M28.4523 32.2204L19.1836 26.8618V16.1445L28.4523 21.5007V32.2204Z" fill="url(#paint48_linear_108_7707)"/>
<g opacity="0.77">
<path d="M37.7258 16.1447L28.4523 21.5009L19.1836 16.1447L28.4523 10.7812L37.7258 16.1447Z" fill="url(#paint49_linear_108_7707)"/>
</g>
</g>
<defs>
<linearGradient id="paint0_linear_108_7707" x1="43.5685" y1="-1.05661" x2="8.59305" y2="47.2914" gradientUnits="userSpaceOnUse">
<stop stop-color="#FF3C2E"/>
<stop offset="1" stop-color="#872AFF"/>
</linearGradient>
<linearGradient id="paint1_linear_108_7707" x1="57.2247" y1="-10.299" x2="37.9923" y2="27.2979" gradientUnits="userSpaceOnUse">
<stop stop-color="#FF291A"/>
<stop offset="1" stop-color="#6B11FF"/>
</linearGradient>
<linearGradient id="paint2_linear_108_7707" x1="57.0659" y1="-12.2678" x2="22.0905" y2="36.0802" gradientUnits="userSpaceOnUse">
<stop stop-color="#FF493C"/>
<stop offset="1" stop-color="#8F38FF"/>
</linearGradient>
<linearGradient id="paint3_linear_108_7707" x1="55.3739" y1="-6.18416" x2="20.4009" y2="42.1638" gradientUnits="userSpaceOnUse">
<stop stop-color="#D8338B"/>
<stop offset="1" stop-color="#2F4BD8"/>
</linearGradient>
<linearGradient id="paint4_linear_108_7707" x1="62.4109" y1="-7.64885" x2="43.1761" y2="29.9481" gradientUnits="userSpaceOnUse">
<stop stop-color="#D7157C"/>
<stop offset="1" stop-color="#0D39D6"/>
</linearGradient>
<linearGradient id="paint5_linear_108_7707" x1="32.637" y1="-6.58693" x2="-8.9743" y2="48.2326" gradientUnits="userSpaceOnUse">
<stop stop-color="#D4355C"/>
<stop offset="1" stop-color="#3C31D3"/>
</linearGradient>
<linearGradient id="paint6_linear_108_7707" x1="28.0761" y1="-5.97724" x2="7.51258" y2="43.2174" gradientUnits="userSpaceOnUse">
<stop stop-color="#D42D75"/>
<stop offset="1" stop-color="#283DCF"/>
</linearGradient>
<linearGradient id="paint7_linear_108_7707" x1="46.08" y1="-17.4559" x2="4.47106" y2="37.366" gradientUnits="userSpaceOnUse">
<stop stop-color="#FF3C2A"/>
<stop offset="1" stop-color="#8226FF"/>
</linearGradient>
<linearGradient id="paint8_linear_108_7707" x1="60.7496" y1="-4.62774" x2="23.489" y2="27.1779" gradientUnits="userSpaceOnUse">
<stop stop-color="#FF1E0E"/>
<stop offset="1" stop-color="#6305FF"/>
</linearGradient>
<linearGradient id="paint9_linear_108_7707" x1="47.5264" y1="-27.3079" x2="26.9653" y2="21.8868" gradientUnits="userSpaceOnUse">
<stop stop-color="#FF160E"/>
<stop offset="1" stop-color="#5B05FF"/>
</linearGradient>
<linearGradient id="paint10_linear_108_7707" x1="63.2996" y1="12.1786" x2="11.0774" y2="31.1743" gradientUnits="userSpaceOnUse">
<stop stop-color="#FF3E30"/>
<stop offset="1" stop-color="#832CFF"/>
</linearGradient>
<linearGradient id="paint11_linear_108_7707" x1="70.6742" y1="-0.946105" x2="38.117" y2="30.0329" gradientUnits="userSpaceOnUse">
<stop stop-color="#E63740"/>
<stop offset="1" stop-color="#6032E1"/>
</linearGradient>
<linearGradient id="paint12_linear_108_7707" x1="69.8577" y1="4.29173" x2="34.8847" y2="52.6373" gradientUnits="userSpaceOnUse">
<stop stop-color="#D72837"/>
<stop offset="1" stop-color="#5425D7"/>
</linearGradient>
<linearGradient id="paint13_linear_108_7707" x1="78.6262" y1="7.40965" x2="46.0715" y2="38.3911" gradientUnits="userSpaceOnUse">
<stop stop-color="#D8344C"/>
<stop offset="1" stop-color="#492FD3"/>
</linearGradient>
<linearGradient id="paint14_linear_108_7707" x1="72.4118" y1="0.880257" x2="39.8571" y2="31.8593" gradientUnits="userSpaceOnUse">
<stop stop-color="#FF3D4A"/>
<stop offset="1" stop-color="#6738FA"/>
</linearGradient>
<linearGradient id="paint15_linear_108_7707" x1="69.2372" y1="1.71362" x2="27.7619" y2="44.5615" gradientUnits="userSpaceOnUse">
<stop stop-color="#FF3E30"/>
<stop offset="1" stop-color="#832CFF"/>
</linearGradient>
<linearGradient id="paint16_linear_108_7707" x1="48.1233" y1="-7.5989" x2="1.29946" y2="63.7921" gradientUnits="userSpaceOnUse">
<stop stop-color="#FF493C"/>
<stop offset="1" stop-color="#9B37FF"/>
</linearGradient>
<linearGradient id="paint17_linear_108_7707" x1="31.414" y1="17.2554" x2="6.58575" y2="73.3659" gradientUnits="userSpaceOnUse">
<stop stop-color="#FF7A3C"/>
<stop offset="1" stop-color="#CD37FF"/>
</linearGradient>
<linearGradient id="paint18_linear_108_7707" x1="47.3496" y1="-17.7981" x2="6.14144" y2="103.232" gradientUnits="userSpaceOnUse">
<stop stop-color="#FF603C"/>
<stop offset="1" stop-color="#B237FF"/>
</linearGradient>
<linearGradient id="paint19_linear_108_7707" x1="47.3496" y1="-17.7974" x2="6.14145" y2="103.233" gradientUnits="userSpaceOnUse">
<stop stop-color="#FF6D3C"/>
<stop offset="1" stop-color="#BF37FF"/>
</linearGradient>
<linearGradient id="paint20_linear_108_7707" x1="35.0735" y1="1.6252" x2="-11.7528" y2="73.0186" gradientUnits="userSpaceOnUse">
<stop stop-color="#FF493C"/>
<stop offset="1" stop-color="#9B37FF"/>
</linearGradient>
<linearGradient id="paint21_linear_108_7707" x1="25.6387" y1="14.699" x2="0.810473" y2="70.8119" gradientUnits="userSpaceOnUse">
<stop stop-color="#FF6D3C"/>
<stop offset="1" stop-color="#BF37FF"/>
</linearGradient>
<linearGradient id="paint22_linear_108_7707" x1="38.7246" y1="-12.5497" x2="3.75163" y2="35.7983" gradientUnits="userSpaceOnUse">
<stop stop-color="#FF4133"/>
<stop offset="1" stop-color="#8B2FFF"/>
</linearGradient>
<linearGradient id="paint23_linear_108_7707" x1="38.7488" y1="-7.77164" x2="-2.86252" y2="47.0479" gradientUnits="userSpaceOnUse">
<stop stop-color="#FF2F20"/>
<stop offset="1" stop-color="#781CFF"/>
</linearGradient>
<linearGradient id="paint24_linear_108_7707" x1="40.9895" y1="-23.1705" x2="6.01653" y2="25.1775" gradientUnits="userSpaceOnUse">
<stop stop-color="#FF4B3E"/>
<stop offset="1" stop-color="#9139FF"/>
</linearGradient>
<linearGradient id="paint25_linear_108_7707" x1="13.3591" y1="-19.4332" x2="15.0186" y2="33.9215" gradientUnits="userSpaceOnUse">
<stop stop-color="#FF291A"/>
<stop offset="1" stop-color="#6B11FF"/>
</linearGradient>
<linearGradient id="paint26_linear_108_7707" x1="36.2208" y1="-32.2614" x2="-6.92571" y2="31.3527" gradientUnits="userSpaceOnUse">
<stop stop-color="#D7157C"/>
<stop offset="1" stop-color="#0D39D6"/>
</linearGradient>
<linearGradient id="paint27_linear_108_7707" x1="21.2262" y1="-14.4799" x2="-12.0474" y2="43.9253" gradientUnits="userSpaceOnUse">
<stop stop-color="#D8358C"/>
<stop offset="1" stop-color="#304AD8"/>
</linearGradient>
<linearGradient id="paint28_linear_108_7707" x1="39.9834" y1="-18.3803" x2="21.1145" y2="46.753" gradientUnits="userSpaceOnUse">
<stop stop-color="#F0E1BB"/>
<stop offset="1" stop-color="#FFF2A0" stop-opacity="0"/>
</linearGradient>
<linearGradient id="paint29_linear_108_7707" x1="38.5586" y1="8.38867" x2="14.4203" y2="26.8751" gradientUnits="userSpaceOnUse">
<stop stop-color="#FFE663"/>
<stop offset="1" stop-color="#FF6363" stop-opacity="0"/>
</linearGradient>
<linearGradient id="paint30_linear_108_7707" x1="53.4601" y1="-9.46307" x2="24.2815" y2="38.623" gradientUnits="userSpaceOnUse">
<stop stop-color="#FFE663"/>
<stop offset="1" stop-color="#FF6363" stop-opacity="0"/>
</linearGradient>
<linearGradient id="paint31_linear_108_7707" x1="47.8802" y1="-2.26124" x2="21.7592" y2="26.3829" gradientUnits="userSpaceOnUse">
<stop stop-color="#FFE663"/>
<stop offset="1" stop-color="#FF6363" stop-opacity="0"/>
</linearGradient>
<linearGradient id="paint32_linear_108_7707" x1="47.2328" y1="-27.905" x2="10.9198" y2="29.8332" gradientUnits="userSpaceOnUse">
<stop stop-color="#FFAE3D"/>
<stop offset="1" stop-color="#FF3D3D" stop-opacity="0"/>
</linearGradient>
<linearGradient id="paint33_linear_108_7707" x1="20.2265" y1="10.692" x2="49.5878" y2="28.5465" gradientUnits="userSpaceOnUse">
<stop stop-color="#FFAE3D"/>
<stop offset="1" stop-color="#FF3D3D" stop-opacity="0"/>
</linearGradient>
<linearGradient id="paint34_linear_108_7707" x1="72.9697" y1="9.56457" x2="39.9604" y2="31.0625" gradientUnits="userSpaceOnUse">
<stop stop-color="#FFAE3D"/>
<stop offset="1" stop-color="#FF3D3D" stop-opacity="0"/>
</linearGradient>
<linearGradient id="paint35_linear_108_7707" x1="45.2111" y1="-17.8604" x2="12.0706" y2="39.0362" gradientUnits="userSpaceOnUse">
<stop stop-color="#FFAE3D"/>
<stop offset="1" stop-color="#FF3D3D" stop-opacity="0"/>
</linearGradient>
<linearGradient id="paint36_linear_108_7707" x1="49.7359" y1="-8.78163" x2="15.4501" y2="41.8014" gradientUnits="userSpaceOnUse">
<stop stop-color="#FFAE3D"/>
<stop offset="1" stop-color="#FF3D3D" stop-opacity="0"/>
</linearGradient>
<linearGradient id="paint37_linear_108_7707" x1="23.4301" y1="32.0034" x2="43.506" y2="-6.44791" gradientUnits="userSpaceOnUse">
<stop stop-color="#FFAE3D"/>
<stop offset="1" stop-color="#FF3D3D" stop-opacity="0"/>
</linearGradient>
<linearGradient id="paint38_linear_108_7707" x1="41.4179" y1="-16.2795" x2="6.44487" y2="32.0661" gradientUnits="userSpaceOnUse">
<stop stop-color="#FFAE3D"/>
<stop offset="1" stop-color="#FF3D3D" stop-opacity="0"/>
</linearGradient>
<linearGradient id="paint39_linear_108_7707" x1="37.8703" y1="-18.848" x2="2.89487" y2="29.5" gradientUnits="userSpaceOnUse">
<stop stop-color="#FFAE3D"/>
<stop offset="1" stop-color="#FF3D3D" stop-opacity="0"/>
</linearGradient>
<linearGradient id="paint40_linear_108_7707" x1="28.5253" y1="34.6634" x2="48.6012" y2="-3.78547" gradientUnits="userSpaceOnUse">
<stop stop-color="#FFAE3D"/>
<stop offset="1" stop-color="#FF3D3D" stop-opacity="0"/>
</linearGradient>
<linearGradient id="paint41_linear_108_7707" x1="30.0889" y1="11.1475" x2="10.126" y2="72.0431" gradientUnits="userSpaceOnUse">
<stop stop-color="#FFE663"/>
<stop offset="1" stop-color="#FF6363" stop-opacity="0"/>
</linearGradient>
<linearGradient id="paint42_linear_108_7707" x1="32.7349" y1="22.5078" x2="44.6899" y2="-5.51193" gradientUnits="userSpaceOnUse">
<stop stop-color="#FFAE3D"/>
<stop offset="1" stop-color="#FF3D3D" stop-opacity="0"/>
</linearGradient>
<linearGradient id="paint43_linear_108_7707" x1="50.2397" y1="-32.0708" x2="36.0434" y2="40.7008" gradientUnits="userSpaceOnUse">
<stop stop-color="#FFAE3D"/>
<stop offset="1" stop-color="#FF3D3D" stop-opacity="0"/>
</linearGradient>
<linearGradient id="paint44_linear_108_7707" x1="38.7664" y1="71.2319" x2="37.7051" y2="20.5685" gradientUnits="userSpaceOnUse">
<stop stop-color="#FFAE3D"/>
<stop offset="1" stop-color="#FF3D3D" stop-opacity="0"/>
</linearGradient>
<linearGradient id="paint45_linear_108_7707" x1="62.6606" y1="-3.18405" x2="0.752089" y2="39.5014" gradientUnits="userSpaceOnUse">
<stop stop-color="#FFAE3D"/>
<stop offset="1" stop-color="#FF3D3D" stop-opacity="0"/>
</linearGradient>
<linearGradient id="paint46_linear_108_7707" x1="20.9583" y1="10.7281" x2="67.3576" y2="40.4726" gradientUnits="userSpaceOnUse">
<stop stop-color="#FFE663"/>
<stop offset="1" stop-color="#FF6363" stop-opacity="0"/>
</linearGradient>
<linearGradient id="paint47_linear_108_7707" x1="47.9773" y1="2.68054" x2="4.27738" y2="65.6551" gradientUnits="userSpaceOnUse">
<stop stop-color="#FFFBBE"/>
<stop offset="1" stop-color="#FFD1D4" stop-opacity="0"/>
</linearGradient>
<linearGradient id="paint48_linear_108_7707" x1="45.146" y1="-8.7547" x2="13.643" y2="39.7861" gradientUnits="userSpaceOnUse">
<stop stop-color="#FFE7C6"/>
<stop offset="1" stop-color="#FFD7E8" stop-opacity="0"/>
</linearGradient>
<linearGradient id="paint49_linear_108_7707" x1="30.8206" y1="3.62278" x2="9.20287" y2="117.757" gradientUnits="userSpaceOnUse">
<stop stop-color="#EBEBEB"/>
<stop offset="1" stop-color="#F1F1F1" stop-opacity="0"/>
</linearGradient>
</defs>
</svg>
