<svg width="47" height="42" viewBox="0 0 47 42" fill="none" xmlns="http://www.w3.org/2000/svg">
<path d="M19.5719 0.628124C19.5156 0.824997 19.3469 1.52812 19.1875 2.20312C19.0281 2.86875 18.8594 3.55312 18.8031 3.72187C18.7 4.05 18.5875 4.09687 17.3594 4.35938C16.9469 4.45312 16.2531 4.64062 15.8125 4.79062C15.3813 4.94062 14.9594 5.04375 14.875 5.01562C14.8 4.9875 14.1906 4.3875 13.5156 3.68437C12.85 2.97187 12.2781 2.38125 12.2406 2.3625C12.175 2.33437 9.75625 3.68437 9.59688 3.83437C9.55938 3.87187 9.76562 4.70625 10.0563 5.69062L10.5906 7.48125L9.16563 8.89687C8.25625 9.81562 7.68438 10.3125 7.5625 10.3125C7.45 10.3125 6.6625 10.0969 5.80938 9.84375C4.95625 9.58125 4.19688 9.375 4.13125 9.375C4.06563 9.375 3.67188 9.975 3.25938 10.6969L2.5 12.0187L3.55 13.0219C5.15313 14.5312 5.21875 14.5969 5.21875 14.7469C5.21875 14.8219 5.09688 15.2625 4.94688 15.7219C4.79688 16.1719 4.60938 16.8844 4.51563 17.2969C4.29063 18.3844 4.21563 18.5437 3.86875 18.6375C3.70938 18.6844 2.89375 18.8812 2.05938 19.0781L0.53125 19.4437V21V22.5656L2.275 22.9781C3.24063 23.2031 4.075 23.4281 4.15 23.4844C4.21563 23.5312 4.35625 23.9812 4.46875 24.4688C4.57188 24.9562 4.7875 25.7719 4.94688 26.2781C5.09688 26.7844 5.2 27.2812 5.17188 27.375C5.14375 27.4781 4.98438 27.6656 4.81563 27.8062C4.64688 27.9469 4.06563 28.4906 3.50313 29.0156L2.5 29.9812L3.25938 31.3031C3.67188 32.025 4.06563 32.625 4.14063 32.625C4.23438 32.625 5.21875 32.3344 7.4875 31.6312C7.6 31.6031 8.07813 32.0156 9.10938 33.0375L10.5813 34.5L10.0563 36.2719C9.76562 37.2469 9.53125 38.0625 9.53125 38.0906C9.53125 38.1187 10.1313 38.4844 10.8625 38.9062L12.2031 39.675L13.525 38.2875L14.8469 36.9L15.8219 37.2C16.3563 37.3687 17.2 37.5844 17.6875 37.6969C18.1844 37.8 18.625 37.95 18.6906 38.025C18.7844 38.1562 19.5625 41.25 19.5625 41.5031C19.5625 41.5969 19.8344 41.625 20.5938 41.625H21.625V37.5562V33.4969L20.4344 33.4406C14.8563 33.1875 10.1313 29.0812 8.9125 23.4375C8.70625 22.4812 8.63125 20.3719 8.77188 19.3969C9.3625 15.225 11.8938 11.6812 15.5969 9.80625C17.0781 9.06562 18.8313 8.60625 20.6688 8.475L21.625 8.40937V4.35V0.28125H20.6406H19.6656L19.5719 0.628124Z" fill="url(#paint0_linear_81_27642)"/>
<path d="M33.6434 1.18127C31.9746 2.00627 31.984 4.46252 33.6527 5.31565C34.6277 5.81252 35.9496 5.54065 36.5871 4.71565C37.5059 3.50627 37.084 1.7344 35.734 1.11564C35.1527 0.84377 34.2527 0.88127 33.6434 1.18127Z" fill="url(#paint1_linear_81_27642)"/>
<path d="M22.5625 3.23438V3.84375H26.9969H31.4219V3.23438V2.625H26.9969H22.5625V3.23438Z" fill="url(#paint2_linear_81_27642)"/>
<path d="M40.3472 8.11873C39.0534 8.52186 38.4159 10.1719 39.0534 11.4187C39.7566 12.7875 41.7066 13.0875 42.8034 11.9906C43.9003 10.8937 43.6003 8.94373 42.2316 8.24061C41.7441 7.98748 40.9097 7.93123 40.3472 8.11873Z" fill="url(#paint3_linear_81_27642)"/>
<path d="M19.9377 9.53442C19.2252 9.60942 18.0721 9.88129 17.3127 10.1438C13.5064 11.4844 10.7314 14.7094 9.8502 18.7969C9.63457 19.8282 9.63457 22.1719 9.8502 23.2032C10.3564 25.5375 11.3783 27.4594 12.9814 29.0907C15.9252 32.0719 20.1346 33.1969 24.2689 32.1C25.3283 31.8188 27.1377 30.9375 28.0471 30.2625C30.9814 28.0688 32.6877 24.6563 32.6877 21C32.6877 17.9063 31.4971 15.0094 29.3127 12.8438C27.5408 11.0813 25.3752 9.9938 22.8439 9.60942C22.0283 9.47817 20.7346 9.45004 19.9377 9.53442ZM23.2096 12.9469C24.1471 13.1813 25.6471 13.9313 26.4064 14.5594C27.3064 15.2907 28.0471 16.2282 28.5721 17.2969C29.2564 18.675 29.4346 19.4625 29.4346 21C29.4346 22.5094 29.2564 23.3063 28.6096 24.6094C27.6064 26.6532 25.9096 28.1344 23.6877 28.8844C22.8908 29.1563 22.6564 29.1938 21.4846 29.2313C20.3689 29.2594 20.0408 29.2407 19.3377 29.0719C17.0033 28.5094 15.0533 27.0282 13.9002 24.9188C13.1596 23.5782 12.8502 22.1625 12.9346 20.5032C13.1314 16.5844 16.1783 13.3032 20.1346 12.75C20.9502 12.6375 22.3377 12.7219 23.2096 12.9469Z" fill="url(#paint4_linear_81_27642)"/>
<path d="M19.7496 13.8188C17.9778 14.2032 16.4496 15.1594 15.409 16.5282C14.8184 17.3063 14.5653 17.7844 14.2559 18.6938C13.6465 20.4844 13.8059 22.6219 14.6871 24.3751C15.0246 25.0594 15.8684 26.1094 16.4965 26.6251C17.1809 27.1876 18.5121 27.8719 19.3746 28.0969C20.2278 28.3219 22.1965 28.3219 23.0215 28.0876C25.4684 27.4126 27.3434 25.6313 28.159 23.2032C28.384 22.5282 28.4121 22.3126 28.4121 21.0469C28.4215 19.8282 28.3934 19.5469 28.2059 18.9376C27.4278 16.4626 25.5153 14.5876 23.0778 13.9219C22.2903 13.7157 20.5184 13.6594 19.7496 13.8188Z" fill="url(#paint5_linear_81_27642)"/>
<path d="M27.0625 9.95625C27.2406 10.0594 27.6438 10.3125 27.9625 10.5187L28.525 10.875H33.1844H37.8438V10.3125V9.75H32.2938H26.7344L27.0625 9.95625Z" fill="url(#paint6_linear_81_27642)"/>
<path d="M44.2283 16.0969C43.244 16.5844 43.1783 18.0938 44.1252 18.7219C44.519 18.9938 45.2502 19.0125 45.719 18.7594C46.4033 18.3938 46.6752 17.4 46.2721 16.6875C45.8877 16.0125 44.9502 15.7407 44.2283 16.0969Z" fill="url(#paint7_linear_81_27642)"/>
<path d="M33.1561 17.4094L33.3248 17.9531L37.8811 17.9812L42.4373 18V17.4375V16.875H37.7123H32.9873L33.1561 17.4094Z" fill="url(#paint8_linear_81_27642)"/>
<path d="M44.1252 23.2781C43.6752 23.5781 43.4502 24.0094 43.4502 24.5531C43.4596 25.4344 43.9658 25.9687 44.8377 26.0437C46.0471 26.1469 46.8439 24.9187 46.2814 23.8219C46.0283 23.3156 45.5877 23.0625 44.9502 23.0625C44.5658 23.0625 44.3502 23.1187 44.1252 23.2781Z" fill="url(#paint9_linear_81_27642)"/>
<path d="M33.2125 24.4406C33.1281 24.6844 33.0625 24.9375 33.0625 25.0031C33.0625 25.1062 33.925 25.125 37.75 25.125H42.4375V24.5625V24H37.9H33.3625L33.2125 24.4406Z" fill="url(#paint10_linear_81_27642)"/>
<path d="M40.1876 29.4844C39.4844 29.8032 38.9219 30.5626 38.8188 31.3594C38.5844 33.0001 40.1876 34.3688 41.8001 33.9001C43.7126 33.3469 44.0876 30.7219 42.4001 29.6719C42.0063 29.4376 41.8282 29.3907 41.2282 29.3626C40.7407 29.3532 40.4126 29.3907 40.1876 29.4844Z" fill="url(#paint11_linear_81_27642)"/>
<path d="M28.0094 31.4531C27.6813 31.6781 27.2875 31.9125 27.1469 31.9781C26.9969 32.0344 26.875 32.1187 26.875 32.1656C26.875 32.2125 29.275 32.25 32.3594 32.25H37.8438V31.6406V31.0312L33.2313 31.0406H28.6094L28.0094 31.4531Z" fill="url(#paint12_linear_81_27642)"/>
<path d="M34.2156 36.4593C32.4344 36.9093 31.8062 39.1406 33.1 40.425C33.775 41.1 34.9469 41.2687 35.8469 40.8281C37.1312 40.1812 37.4969 38.4656 36.5969 37.2843C36.1281 36.6656 34.975 36.2718 34.2156 36.4593Z" fill="url(#paint13_linear_81_27642)"/>
<path d="M22.5625 38.7656V39.375H26.9969H31.4219V38.7656V38.1562H26.9969H22.5625V38.7656Z" fill="url(#paint14_linear_81_27642)"/>
<defs>
<linearGradient id="paint0_linear_81_27642" x1="27.5001" y1="2.36231" x2="-9.79661" y2="16.6984" gradientUnits="userSpaceOnUse">
<stop stop-color="#51C8EF"/>
<stop offset="1" stop-color="#7AF57A"/>
</linearGradient>
<linearGradient id="paint1_linear_81_27642" x1="38.3812" y1="1.16542" x2="32.3675" y2="5.74383" gradientUnits="userSpaceOnUse">
<stop stop-color="#51C8EF"/>
<stop offset="1" stop-color="#7AF57A"/>
</linearGradient>
<linearGradient id="paint2_linear_81_27642" x1="33.8894" y1="2.68635" x2="33.3093" y2="5.86335" gradientUnits="userSpaceOnUse">
<stop stop-color="#51C8EF"/>
<stop offset="1" stop-color="#7AF57A"/>
</linearGradient>
<linearGradient id="paint3_linear_81_27642" x1="44.7707" y1="8.2418" x2="38.7446" y2="12.7982" gradientUnits="userSpaceOnUse">
<stop stop-color="#51C8EF"/>
<stop offset="1" stop-color="#7AF57A"/>
</linearGradient>
<linearGradient id="paint4_linear_81_27642" x1="39.0935" y1="10.6455" x2="9.2945" y2="33.07" gradientUnits="userSpaceOnUse">
<stop stop-color="#51C8EF"/>
<stop offset="1" stop-color="#7AF57A"/>
</linearGradient>
<linearGradient id="paint5_linear_81_27642" x1="32.4587" y1="14.4586" x2="13.6436" y2="28.6193" gradientUnits="userSpaceOnUse">
<stop stop-color="#51C8EF"/>
<stop offset="1" stop-color="#7AF57A"/>
</linearGradient>
<linearGradient id="paint6_linear_81_27642" x1="40.938" y1="9.80663" x2="40.5379" y2="12.7832" gradientUnits="userSpaceOnUse">
<stop stop-color="#51C8EF"/>
<stop offset="1" stop-color="#7AF57A"/>
</linearGradient>
<linearGradient id="paint7_linear_81_27642" x1="47.2985" y1="16.0907" x2="43.413" y2="19.0285" gradientUnits="userSpaceOnUse">
<stop stop-color="#51C8EF"/>
<stop offset="1" stop-color="#7AF57A"/>
</linearGradient>
<linearGradient id="paint8_linear_81_27642" x1="45.0694" y1="16.9316" x2="44.6022" y2="19.8882" gradientUnits="userSpaceOnUse">
<stop stop-color="#51C8EF"/>
<stop offset="1" stop-color="#7AF57A"/>
</linearGradient>
<linearGradient id="paint9_linear_81_27642" x1="47.3053" y1="23.2128" x2="43.4281" y2="26.1611" gradientUnits="userSpaceOnUse">
<stop stop-color="#51C8EF"/>
<stop offset="1" stop-color="#7AF57A"/>
</linearGradient>
<linearGradient id="paint10_linear_81_27642" x1="45.0487" y1="24.0566" x2="44.5779" y2="27.012" gradientUnits="userSpaceOnUse">
<stop stop-color="#51C8EF"/>
<stop offset="1" stop-color="#7AF57A"/>
</linearGradient>
<linearGradient id="paint11_linear_81_27642" x1="44.7778" y1="29.5943" x2="38.7648" y2="34.17" gradientUnits="userSpaceOnUse">
<stop stop-color="#51C8EF"/>
<stop offset="1" stop-color="#7AF57A"/>
</linearGradient>
<linearGradient id="paint12_linear_81_27642" x1="40.8988" y1="31.0926" x2="40.4249" y2="34.3056" gradientUnits="userSpaceOnUse">
<stop stop-color="#51C8EF"/>
<stop offset="1" stop-color="#7AF57A"/>
</linearGradient>
<linearGradient id="paint13_linear_81_27642" x1="38.3971" y1="36.6469" x2="32.3576" y2="41.2164" gradientUnits="userSpaceOnUse">
<stop stop-color="#51C8EF"/>
<stop offset="1" stop-color="#7AF57A"/>
</linearGradient>
<linearGradient id="paint14_linear_81_27642" x1="33.8894" y1="38.2176" x2="33.3093" y2="41.3946" gradientUnits="userSpaceOnUse">
<stop stop-color="#51C8EF"/>
<stop offset="1" stop-color="#7AF57A"/>
</linearGradient>
</defs>
</svg>
